<?xml version="1.0" encoding="utf-8"?> 8 = satrday new week
<!-- Generator: Adobe Illustrator 25.2.3, SVG Export Plug-In . SVG Version: 6.00 Build 0)  -->626
<svg version="1.1" id="Calque_1" xmlns="http://www.w3.org/2000/svg" xmlns:xlink="http://www.w3.org/1999/xlink" x="0px" y="0px"
	 viewBox="0 0 330 330" style="enable-background:new 0 0 330 330;" xml:space="preserve"> SCOB666
<style type="text/css">
	.st0{fill:#FFFFFF;}
	.st1{fill:#020202;}
</style>
<rect class="st0" width="330" height="330"/>
<g id="layer101">
	<path class="st1" d="M140.8,292.6c-5.6-1.1-8.2-2.7-20.7-13.1c-2.7-2.2-6.7-6.2-9-8.8c-3.6-4.2-4.1-5.4-4.1-9.6
		c0-3.4-0.7-5.8-2.3-8.2l-2.3-3.4h-12c-6.5,0-13.2,0.5-14.9,1.2c-1.6,0.6-5,1.6-7.5,2.3s-5.8,1.7-7.3,2.3c-1.5,0.5-3,0.7-3.3,0.4
		c-0.5-0.5,12.3-6.9,16.1-8c2.6-0.8,13.8-2.1,20.8-2.5L97,245l-3.7-3.8c-4.4-4.3-7.3-12.3-7.3-20c0-3.6-0.9-7.1-3.1-11.9
		c-2.8-6.1-3-7.5-2.8-15.2c0.2-4.8,1.1-11.5,2.2-15.1c1-3.6,1.8-8.1,1.7-10c-0.1-1.9-0.2-9.3-0.4-16.5c-0.3-13.4-1.2-22.3-2.7-26.3
		c-0.5-1.3-0.5-4.1,0.1-6.7c0.5-2.4,1.4-7.8,1.9-12.2c1-9.1,3.2-14.2,10.1-23.8c4.7-6.4,8.1-12.7,7.9-14.3c-0.5-3.4,0.6-5.4,4.3-7.9
		c2.2-1.5,6.2-4.9,8.7-7.4c5-5,11.2-8.4,17.6-9.5c2.2-0.3,4.5-1,5-1.4c1.5-1.1,7.3-2,14.6-2.3c4.9-0.1,7.3-0.7,8.7-2
		c2.7-2.5,17.7-2.6,21.9-0.3c7.6,4.2,11.1,5.6,14.1,5.6c6.2,0,8.6,2,18.9,15.9c1,1.3,2.5,3.1,3.3,4.1c0.8,0.9,2,2.3,2.5,3.2
		c7.3,10.8,10.5,16.3,16.1,27.3c3.6,7.2,6.9,13.7,7.3,14.5c2.1,3.7,2.8,7.8,1.8,9.6c-0.6,1.1-1.4,6.4-1.7,12
		c-0.4,6.2-1.3,11.4-2.3,13.4c-1,1.8-1.7,3.8-1.7,4.3c0,0.6-0.7,1.8-1.5,2.7c-0.9,1-2.2,5-3,9.1c-0.9,4.1-2.4,9.2-3.4,11.4
		c-3.4,7-3.3,9.6,0.2,17.3c0.8,1.8,0.6,2.6-1.1,4.5c-1.5,1.6-2.2,3.6-2.2,6.3c0,4.2-2.7,9.4-6.7,13.1c-1.9,1.8-2.4,3.2-2.2,6.5
		c0.1,2.4-0.3,5.3-0.8,6.6s-0.4,5.9,0.2,11.4l1,9.1l7.5,3.8c4.1,2.1,10.5,5.2,14.1,6.9c7.4,3.4,15.4,8.8,14.5,9.7
		c-0.3,0.4-1.6,0.2-2.9-0.4c-1.2-0.6-5.1-2.4-8.7-4.1c-3.6-1.6-11.2-4.9-17-7.2c-11.2-4.4-13-5.8-13-10c0-1.4-0.7-3.5-1.5-4.6
		c-1.4-1.8-1.6-1.8-4.2,1.2c-1.6,1.7-4.6,4.3-6.8,5.9c-5.1,3.6-7.1,5.9-9.6,11.5c-1.2,2.5-3.1,6.8-4.4,9.5
		c-2.1,4.5-11.8,14.5-14.2,14.5c-0.4,0-3,2.1-5.8,4.6c-2.7,2.6-6,5-7.3,5.5C158.1,294.3,147.9,294.1,140.8,292.6z M141.5,286.4
		c0.5-3-0.2-16.4-1-16.4c-0.1,0-1.6,0.7-3.3,1.6c-2,1-3.2,2.3-3.2,3.6c0,1.7-0.2,1.8-1.5,0.8c-0.8-0.7-1.5-2.1-1.5-3.1
		c0-1.8-3.6-5.9-5.2-5.9c-1.8,0-0.6,5.8,2.2,11c1.7,3,3.3,6.3,3.7,7.3c0.3,0.9,1.3,1.7,2.2,1.7c1,0,2.6,0.7,3.7,1.5
		C140.4,290.6,140.7,290.4,141.5,286.4z M170.4,282.1c1-1.1,4.1-3.5,6.7-5.2c4.7-2.9,10.9-10.8,10.9-13.6c0-0.8,1.2-3.9,2.6-6.9
		l2.6-5.4l-2.1-5.8l-2.1-5.7l0.3,6.5c0.4,7,0.1,9-1.4,9c-0.6,0-0.8-0.4-0.4-0.9c0.3-0.6-1.2-4.7-3.4-9.3s-4-9.6-4.2-11.3
		c-0.4-4.4,0.9-9.1,3.2-11.1c2.4-2.2,2.4-5-0.1-10.8c-2.4-5.2-5.2-6.6-9.7-4.4c-3.6,1.7-4,4-1.2,7.9c2.8,4,4.4,9.7,4.1,15.2
		c-0.2,2.8-2.2,3.9-2.2,1.2c0-0.8-0.4-1.5-0.9-1.5c-1.6,0-4.1,6.1-4.1,9.8c0,4-1,3.6-2.6-1.1c-1.5-4.4-3.8-4.5-5.8-0.2
		c-0.9,1.9-2.2,3.5-2.8,3.5c-0.7,0-3.2-2.1-5.6-4.7l-4.5-4.8l0.6,3.2c0.4,1.8,1.8,5.1,3.2,7.3c2,3.1,2.2,4,1,4
		c-1.2,0-1.4,0.6-0.8,2.8c1.1,3.8,1,10.8-0.1,10.2c-1.2-0.6-2.7,4.6-1.9,6.6c0.4,1.1,0.9,1.2,1.8,0.4c0.7-0.6,1.9-0.9,2.6-0.8
		c1,0.2,1.3-0.6,1.1-2.6c-0.4-2.8-0.3-2.8,3.4-2.1c3.8,0.7,8,3.1,10.3,5.9c0.7,0.8,1.4,4.3,1.7,7.7c0.3,4.9,0.1,6-1,5.6
		c-0.8-0.3-1.7,0.1-2,0.9s-1.9,1.4-3.6,1.4c-3.1,0-3.9,1.7-1.8,3.8C163.4,288,166.8,286.1,170.4,282.1z M155.8,278
		c0.5,0,1.2,1.4,1.6,3.1c0.6,2.9,2.6,3.2,2.6,0.4c0-0.8,1.3-2.1,3-3c3.1-1.6,5.4-4.8,4.3-5.9c-1.4-1.4-3.2-0.4-5.2,2.9
		c-2.4,4.1-4.4,4.7-3.5,1c0.6-2.6-1.2-8.5-2.6-8.5c-1.6,0-4,7-4,11.7l0.1,4.8l1.4-3.2C154.3,279.5,155.3,278,155.8,278z
		 M142.3,264.2c2.8-2.9,3.5-6.6,1.6-7.8c-1.4-0.8-7.4,5.2-8.4,8.4c-0.5,1.8-0.3,2.2,1.7,2.2C138.6,267,140.8,265.7,142.3,264.2z
		 M113.6,258.9c0.9-1,2.8-1.9,4.1-1.9c1.3,0,2.6-0.7,2.9-1.5c0.8-2.1,3.4-1.9,3.4,0.3c0,1-0.7,2.7-1.5,3.8c-0.8,1-1.5,2.7-1.5,3.7
		c0,1.7,0.2,1.7,2.9-0.2c1.6-1.2,4.1-2.1,5.5-2.1c3.9,0,7.6-4.1,7.6-8.5c0-1.9,0.5-3.5,1-3.5c0.6,0,1,1.4,1,3c0,1.7,0.5,3,1,3
		c1.6,0,3.2-5.1,2.6-8.1c-0.3-1.5,0.1-3.5,1-4.7c1.2-1.7,1.3-3,0.5-5.9c-1.6-5.7-1.3-9.1,1.1-13.9c3.2-6.4,7.9-10.6,11.4-10.2
		l2.9,0.4l-3,1.3c-2.3,1-2.6,1.4-1.5,2.1c0.8,0.6,2.7,1,4.3,1c3.2,0,3.4,0.9,0.9,4c-1.2,1.4-3,2.3-5.1,2.4l-3.2,0.1l2.2,1.8
		c1.3,1,3.8,1.7,6.6,1.7c2.7,0,4.2,0.4,3.8,1c-0.3,0.6-1.8,1-3.3,1c-2.6,0.1-2.6,0.1-0.7,1.6c2.4,1.8,7.2,1.2,9.5-1.3
		c0.8-0.9,1-1.3,0.3-0.9c-0.8,0.4-1.6-0.7-2.3-3.1c-0.6-2.1-1.6-4.8-2.3-6.1c-1.1-1.8-1-3.4,0.3-8.7c0.8-3.6,1.8-6.5,2.3-6.5
		c0.4,0,0.7,0.5,0.7,1.1c0,0.5,1.5-0.1,3.3-1.4c1.7-1.4,4.3-2.8,5.7-3.2s3.2-1.4,4.2-2.2c1-0.9,1.8-1,2.2-0.4c0.3,0.5-0.6,1.9-2,3
		c-2.5,2-2.5,2.1-0.6,2.1c1.2,0,3.7-0.9,5.7-2s4.1-2,4.8-2s2.5-0.7,4.1-1.5c1.6-0.9,3.2-1.3,3.5-0.9c0.9,0.9-4.2,4.4-6.6,4.4
		c-1.2,0-3.5,1.4-5.2,3.2c-3.4,3.7-3.2,4.5,2.8,10.1c4.5,4.2,6.1,9.3,4.2,13.3c-1.5,3.4-2.7,3-2.7-1.1c0-1.9-0.5-4-1-4.5
		c-1.7-1.7-4.2-0.1-4.9,3.1c-0.5,2.4-0.1,3.9,2.1,7l2.7,4l2.5-2.3c4-3.8,5.1-6.8,4.2-11.8c-0.4-2.5-1.1-5.3-1.5-6.2
		c-1.1-2.7,1.2-2.2,2.6,0.5c2.3,4.4,4,5.7,5.9,4.5c2.6-1.7,4.7-0.4,7.1,4.3l2.1,4.3l1.5-3.5c0.9-2.1,1.3-5.3,1-8.1
		c-0.2-2.7-0.1-4.8,0.3-4.8c1.5,0,7.8-6.6,8.4-8.7c1-3.3,0.2-2.9-4.5,2.2c-2.3,2.5-4.5,4.5-5,4.5c-1.7,0-0.9-2.9,1.1-4.3
		c2.2-1.5,3.9-7.7,2.2-7.7c-0.6,0-1.6,1.4-2.4,3c-0.7,1.7-1.6,3-1.9,3c-0.8,0-1.9-3.7-1.9-6.3c0-1-1.7-4-3.7-6.8l-3.8-5l-1.1,3.3
		l-1.1,3.3l-0.5-5.5c-0.5-6.8-0.1-7.7,2.6-5.2c1.1,1.1,3.8,2.5,5.8,3.1c3.6,1.2,9.4,6.7,11.8,11.1c1.1,2.1,1.2,2.1,4.2-1.9l3-4.1
		l-1.9-3.1l-2-3l-1.7,2.5c-2.1,3.2-3.9,3.4-2.7,0.4c2.9-7.8,2-16.1-1.7-15.7c-0.9,0.1-2.7,0.1-4,0c-2.2-0.1-2.2-0.2,1.3-5.3
		c3.5-5.2,4.3-9.3,2.9-14.6c-0.8-2.9-2.5-2.8-5.8,0.3c-1.5,1.4-3.1,2.5-3.7,2.5c-1.4,0-1.1-2.6,0.6-4c0.8-0.7,1.5-2.1,1.5-3.2
		c0-1.3,1.4-2.5,4.3-3.8c6.1-2.8,6.5-2.6,6.2,2.3c-0.4,5.6,3.8,13.7,7,13.7c2.2,0,2.4-2.6,0.7-8.9c-1.3-4.9-2-6-3.3-5.6
		c-1.5,0.5-1.9-0.4-2.5-5.2c-0.6-5.1-2.7-11.3-3.8-11.3c-0.3,0-1.1-0.3-2-0.6c-1.3-0.5-1.6,0.2-1.6,4.1c0,5.3-1.6,5.3-2.6-0.1
		c-0.8-4.5,0.9-9.9,4.6-14.4c3.4-4.2,4.8-3.5,2.5,1.2c-0.9,1.9-1,2.6-0.3,1.7c0.8-0.9,2.2-1.8,3.3-2.1c1.3-0.2,1.9-1.1,1.8-2.3
		c-0.1-1.1-0.3-3.8-0.4-6c-0.3-5-3.2-11.5-6.7-14.9c-5.3-5-6.3-6.4-7.2-9.6c-1.1-3.8-0.3-12.9,1.2-14.8c1.8-2.1,2.9,0.1,1.9,3.6
		c-1.4,4.9-0.4,10,3.1,14.8c1.7,2.4,3.5,4.4,4,4.4c1.1,0,1-2.4-0.1-3.6c-1.2-1.2-1.7-9.3-0.7-12.1c0.8-2.4,0.2-3.4-4.6-9.2
		c-2.6-3-3.4-3.3-10.8-4c-5.1-0.6-8.7-1.5-9.9-2.5c-1-0.9-2.3-1.6-2.9-1.6c-0.7,0-1.2-0.7-1.2-1.5c0-1.9,0.2-1.9,4.5,0.5
		c3.9,2.2,7,2.6,8,1c0.3-0.5,1.5-1,2.6-1c2.2,0,2.4-1.7,0.6-4.2c-0.9-1.1-4-2-9.6-2.8c-5.5-0.7-9.3-1.8-11.2-3.2
		c-3.6-2.7-2.8-4.1,1.1-2.1c3.9,1.9,15,3.1,13.4,1.3c-0.6-0.6-3.1-1.4-5.5-1.7c-4.7-0.5-5.6-0.8-14-4.7C177.2,40,167,38.9,167,41
		c0,0.6,0.5,1,1.2,1c0.9,0,0.9,0.3,0,1.2c-0.9,0.9-5.1,1.3-13.5,1.4c-11.6,0-20.3,1.5-25.9,4.5c-1,0.5-2.4,0.9-3.2,0.9
		c-0.8,0-5,3.3-9.3,7.3c-4.3,4.1-8.8,7.9-9.9,8.5c-1.2,0.6-2.5,2.4-2.9,3.9c-1.3,5.4-8,17.2-10.5,18.8c-0.6,0.3-1.5,1.5-2.1,2.6
		c-1,2-1,2,1.5,0.4c1.4-1,2.6-2.1,2.6-2.6s0.4-0.9,1-0.9c1.4,0,7-6.1,7-7.6c0-0.8,0.7-1.4,1.5-1.4c0.8,0,1.5,0.3,1.5,0.7
		c0,1.4-4.4,9.9-6.7,12.9c-1.3,1.8-2.9,4.7-3.4,6.5c-1.4,4.5-2,13.7-0.9,14.4c0.5,0.3,0.9,5.3,0.9,11.2c0,9-0.3,11-1.9,13.1
		c-1.1,1.3-2.2,4-2.6,6.1c-0.9,4.9-1.5,5.7-2.9,3.7c-1.1-1.4-1.4-0.8-2.4,4.1c-0.9,4.7-0.8,7,0.4,12.2c1.5,6.1,1.5,6.8-0.6,13.4
		c-2.6,8.3-3.9,18.4-2.8,21.2c0.4,1.1,0.8,1.5,0.8,0.8c0.1-1.9,5.2-7.4,6.3-6.7c0.6,0.4,0.7,2.1,0.3,4.3c-1.1,5.4-1.5,8.6-1.6,14.4
		c-0.1,4.4,0.6,16.1,1,17.7c0.4,1.4,3-4.9,3.1-7.3c0-1.6,0.4-2.6,0.9-2.3c0.5,0.4,1,3.9,1.1,7.9c0,3.9,0.2,8.2,0.3,9.4
		c0.2,2.2,8.9,12.3,10.6,12.3c0.5,0,1.4,1.4,2.1,3c1.2,2.9,1.4,3,3,1.5c2.9-2.7,3.3,0,0.5,4.1c-2.5,3.7-3.1,6.4-1.8,7.8
		c0.4,0.4,1.1-0.5,1.5-1.9C111.6,262,112.7,259.9,113.6,258.9z M206,239.9c0-0.4,0.3-1.6,0.6-2.6c0.6-1.6,0.5-1.5-0.9,0.2
		c-2.2,2.8-3,1.4-1.2-2.1c1.4-2.7,1.3-2.9-0.5-3.6c-1.4-0.5-2-1.7-2-3.7c0-5.2-1.8-4.3-2.5,1.1c-0.4,2.9-1.3,6.4-2,7.8
		c-1,2-1.4,7.7-0.6,9.8C197.1,247.4,206,240.7,206,239.9z M147.5,228.5c0.5-3,0.4-3.7-0.5-2.9c-0.6,0.6-1.3,2.8-1.4,4.8
		C145.2,235.1,146.5,233.8,147.5,228.5z M218.9,194.7c-0.6-1.3-1.9-2.9-3-3.5c-1.8-1.1-1.7-0.9,0.3,2.3
		C218.8,197.4,220.5,198.2,218.9,194.7z M89,137.2c0-4.2-0.1-4.4-1.5-2.6c-1.5,1.9-2,6.6-0.9,7.7C88,143.7,89,141.6,89,137.2z
		 M240.9,129.3c-0.2-2.1,0.1-5,0.5-6.5c1.3-4.6-1.1-3.3-2.7,1.5c-0.9,2.7-1.1,5.1-0.6,6.5C239.4,134.3,241.1,133.4,240.9,129.3z
		 M230,125.4c0-0.8,0.7-1.4,1.5-1.4s1.5,0.5,1.5,1c0,2.3,1.9,0.7,3-2.5c0.6-1.9,2-4,3-4.5c1.8-0.9,1.8-1.1,0-4.7
		c-2.3-4.6-7.6-11-8.4-10.2c-0.4,0.3,0.2,1.7,1.2,3c2.3,3.1,4.5,10,4,12.5c-0.4,1.5-0.8,1.1-2.2-1.9c-2.1-4.8-3.5-4-2.9,1.7
		c0.5,3.7,0.2,4.6-1.5,5.5c-1.3,0.7-1.9,1.7-1.6,2.6C228.3,128.3,230,127.5,230,125.4z M87.6,111.8c0.9-2.9,2-5.7,2.4-6.3
		c1.2-1.7,3.9-10.5,3.2-10.5c-4.8,0.1-6.4,2.8-7.6,12.2c-0.3,2.7-0.8,5.9-1.2,7.3C83.2,119.3,85.8,117,87.6,111.8z M231.2,91.3
		c-1.6-3.2-3.8-7.6-4.8-9.7c-1.7-3.5-1.9-3.7-2.2-1.7c-0.7,4.7,0.9,9.1,5,13.6c2.3,2.5,4.3,4.3,4.5,4.1
		C234,97.4,232.8,94.5,231.2,91.3z"/>
	<path class="st1" d="M173,271.1c0-4.4-1.6-7.7-5.5-11.6c-5.2-5.3-4.8-6.8,1.8-6.1c11.4,1.4,12.5,1.8,15.3,4.7
		c3.2,3.3,2.2,4-1.3,0.7c-3.1-2.9-4.1-1.6-1.4,1.8c1.1,1.5,2.1,3.4,2.1,4.3c-0.1,1.9-2.3,5.1-3.7,5.1c-0.5,0-1.8,0.9-2.8,2
		C174.9,274.9,173,274.5,173,271.1z"/>
	<path class="st1" d="M158.1,250.9c-1.3-3.8-1.4-5.9-0.3-5.9c0.8,0,3.2,6.5,3.2,8.4C161,255.3,159,253.6,158.1,250.9z"/>
	<path class="st1" d="M126,250.6c0-0.8,0.5-1.8,1-2.1c1.3-0.8,1.3-6.2-0.1-7c-1.9-1.3-6.9-8.8-6.9-10.6c0-1.5,0.4-1.6,2.9-0.6
		c1.5,0.5,3.7,0.7,4.7,0.3c1.7-0.7,1.5-0.9-1.3-2.1c-3.6-1.5-4.6-4.1-1.3-3.2c3.3,0.8,3.3-1,0-3.3c-1.7-1.2-2.7-2.6-2.4-3.1
		c0.4-0.6,1.3-0.4,2.3,0.5c0.9,0.8,3.4,2.1,5.5,2.8c2.2,0.7,4.4,2.2,5,3.3c0.6,1,2.1,2.7,3.3,3.7c1.1,1,2.5,3.1,3.1,4.6
		c0.8,2.4,0.6,3.3-1.9,6.3s-2.8,3.2-2.9,1.2c0-3-1.1-5.4-2.1-4.7c-1.2,0.7-1.1,12.1,0.1,12.9c1.3,0.8,1.3,2.5-0.1,2.5
		c-0.5,0-1.9-2-3-4.5c-1.8-4.1-3.6-6.5-2.3-3c0.7,1.8-1.4,7.5-2.7,7.5C126.4,252,126,251.4,126,250.6z"/>
	<path class="st1" d="M117.1,244.8c0.2-2.8-2.8-12.9-4.8-16.1c-0.3-0.5-1.2,0.5-1.9,2.2c-1.9,4.5-3.8,4.1-2.8-0.6
		c1.3-6,0.8-11.9-1.5-17.2c-2.6-6.1-2.6-7-0.2-6.4c1.8,0.5,7.3,7.3,8.3,10.3c0.3,1,1,0.5,2.1-1.7c2.2-4.2,2.1-5.6-0.2-5
		c-1.3,0.3-3.1-1-6.2-4.5c-5.7-6.5-5.6-6.4-6-12.2c-0.3-3.4,0-5.1,0.9-5.4c0.9-0.3,1.1,0.3,0.7,2c-0.4,1.4,0.2,4.1,1.3,6.6
		c1.9,4.3,2,4.3,2.6,1.6l0.7-2.7l2.4,3.4c1.3,1.9,3.2,4.5,4.1,5.8l1.8,2.5l1.3-3c0.6-1.6,1.2-5.6,1.3-9c0-5.6-0.2-6.2-3.5-9.4
		c-1.9-1.9-3.5-4.4-3.5-5.6c0-1.2,1.7-3.9,3.8-6c5.4-5.7,8.8-10.5,9.6-13.7c0.4-1.6,1.2-2.7,1.9-2.4c1.6,0.5,1,5.7-0.9,7.8
		c-2.3,2.5-1.6,2.8,2.4,0.8c2.1-1.1,6.2-2.1,9.2-2.3c3-0.3,6.2-0.7,7-1c2.1-0.8,14.9,2.5,18.3,4.8c1.5,1,2.7,2.6,2.7,3.6
		s0.5,2,1.1,2.2c0.9,0.3,0.7,1.8-0.4,5.3c-1.2,3.7-1.5,7.4-1.2,14.5c0.5,8.4,0.3,9.3-0.9,7.7c-0.8-1.1-1.8-3.8-2.1-6
		c-1.1-6.1-2.9-9.2-7.2-11.7c-5.2-3.1-11.4-3.2-19.4-0.3c-5.4,1.9-7.1,3.2-10.2,7.2c-2,2.6-4,6.3-4.3,8.2s-0.9,4.3-1.4,5.4
		c-0.9,2.2-4.1,18.3-4.6,23c-0.1,1.7,0.3,5.7,1.1,9c1.3,6,1,11.5-0.6,11.5C117.3,248,117,246.5,117.1,244.8z"/>
	<path class="st1" d="M104.9,242.3c-0.6-1.6-1.8-3.7-2.8-4.8c-4.4-4.9-5.4-20.1-1.5-23c2.6-1.9,3.9-0.3,2.6,3.3
		c-0.6,1.7-0.9,4.1-0.8,5.4c0.7,6.1,1.9,11.5,3.1,13.8c1.9,3.9,2.7,8,1.5,8C106.4,245,105.5,243.8,104.9,242.3z"/>
	<path class="st1" d="M139.2,224.8c-0.5-0.7-1.1-2.2-1.3-3.3c-0.2-1.1-1.9-2.6-3.7-3.4c-1.7-0.8-3.2-1.8-3.2-2.3
		c0-1.2,4.4-1,5.8,0.4c0.6,0.6,1.4,0.9,1.8,0.5c1.2-1.2-4.9-7.8-7.8-8.4c-1.5-0.3-2.8-1.2-2.8-2c0-2.2,6.8-0.5,10.7,2.6
		c3.2,2.5,3.3,2.9,3.3,9.9S141.3,227.3,139.2,224.8z"/>
	<path class="st1" d="M143,213.8c0-3.9,7.3-9,11.3-8c3.2,0.8,1.9,3.2-1.7,3.2c-2.5,0-4.3,0.8-6.5,3.1
		C144.3,213.8,143,214.6,143,213.8z"/>
	<path class="st1" d="M95.7,206.9c-1.2-1.4-1.6-2.9-1.2-4.7c0.7-3.3,4.1-7.9,5.1-7c0.8,0.9-0.5,13.8-1.5,13.8
		C97.8,209,96.6,208.1,95.7,206.9z"/>
	<path class="st1" d="M113.6,197.5c-2-3.8-2.6-6.2-2.2-8c0.8-3.1,2.5-3.3,1.9-0.2c-0.3,1.3,0.6,3.6,2.1,5.6c2.4,3.3,3.5,8.1,1.9,8.1
		C116.8,203,115.2,200.5,113.6,197.5z"/>
	<path class="st1" d="M147.5,198c1-1.1,2.8-2,3.9-2c2,0,2,0.1-0.4,2C147.6,200.7,145.1,200.7,147.5,198z"/>
	<path class="st1" d="M170.4,195.5c0.4-1.6,1.7-4.2,2.8-5.7c1.9-2.8,2.1-2.8,3.9-1.2c1,0.9,1.9,1.8,1.9,1.9c0,0.2-2.1,2-4.7,4.1
		l-4.6,3.8L170.4,195.5z"/>
	<path class="st1" d="M192.6,186.8c-1-3.8-0.7-5.8,0.9-5.8c1.1,0,1.5,1.1,1.5,4C195,189.3,193.6,190.4,192.6,186.8z"/>
	<path class="st1" d="M170.4,185.1c0.7-4,1.1-4.5,2.5-3.6c1.7,1,1.3,3-1.1,5.1l-2.1,1.9L170.4,185.1z"/>
	<path class="st1" d="M104,178.3c0.2-3.9,7.4-20.3,9-20.3c0.5,0,2.8-2.7,5-6c2.3-3.3,4.5-5.8,5-5.5c1.2,0.8,4-0.5,4-1.9
		c0-0.6,1.2-2.6,2.8-4.4c3.4-4,9.2-4.9,13.7-2.2c1.7,1,4.5,2.1,6.2,2.5c1.8,0.3,4.7,2,6.5,3.7c3.1,2.9,3.2,3.1,1.3,4.4
		c-1,0.8-2.9,1.4-4.2,1.4s-5,1.1-8.3,2.5c-6.5,2.7-8,3-8,1.5c0-0.5,0.6-1,1.4-1c0.8,0,1.8-0.5,2.2-1.2c0.5-0.7,0.1-0.9-1.3-0.6
		c-1,0.3-4.6,0.2-7.8-0.3c-5.5-0.7-5.9-0.6-8.6,2.1c-1.6,1.6-2.9,3.2-2.9,3.5c0,0.4-1.6,2.9-3.5,5.5s-3.5,5.4-3.5,6.2
		c0,2.3-5.8,10.8-7.5,10.8C104.7,179,104,178.7,104,178.3z"/>
	<path class="st1" d="M211.2,177.8c-0.5-0.7-1.7-2.8-2.6-4.6c-1.4-2.7-1.5-3.6-0.5-4.9c1.1-1.2,1.7-0.7,4,3.9
		c1.6,2.9,2.8,5.6,2.9,6.1C215,179.5,212.3,179.1,211.2,177.8z"/>
	<path class="st1" d="M89.5,174.9c-0.9-1.4-0.5-1.7,3-2.1c2.1-0.2,3,0.2,3.3,1.5c0.3,1.3-0.3,1.7-2.7,1.7
		C91.5,176,89.8,175.5,89.5,174.9z"/>
	<path class="st1" d="M203.2,171.8c-0.7-0.7-1.2-2.1-1.2-3.2c0-2.5,4.7-8.6,6.6-8.6c1.9,0,1.8,0.3-1.1,4.6c-1.4,2.1-2.3,4.5-2,5.5
		C206.2,172.3,204.7,173.3,203.2,171.8z"/>
	<path class="st1" d="M179.5,164.3c-1.5-1.6-3.9-4.4-5.4-6.3c-1.4-1.9-3.6-4.3-4.9-5.3c-2.1-1.8-8.2-10-8.2-11.1
		c0-1.8,3.7-0.1,6.9,3.2c2,2,5.3,5.1,7.3,6.9c4.4,3.7,8.8,10.5,8.8,13.3C184,167.7,182.8,167.5,179.5,164.3z"/>
	<path class="st1" d="M89.8,163.5c-0.8-0.9,2.8-14.9,3.9-15.2c2-0.7,2.3,1.5,0.9,5.9c-0.8,2.4-1.6,5.4-1.8,6.7
		C92.5,163.3,90.9,164.6,89.8,163.5z"/>
	<path class="st1" d="M116.5,133c-0.3-0.5,0.4-1.2,1.6-1.5c2.6-0.9,1.8-1.7-2.1-2.1c-5.8-0.7-6.3-2.4-2.9-8.8c1.1-2.1,1.8-4,1.6-4.2
		c-0.8-0.8-5.1,4.8-6.3,8.2c-1.1,3.3-1,3.6,0.9,4.4c2.6,1.1,2.4,1.2-3.1,1.5c-3.6,0.3-4.2,0.1-3.8-1.3c0.2-1,0.7-3.1,1.1-4.9
		c0.6-3.1,6.1-9,11.8-12.8c1.5-0.9,2.7-2.2,2.7-2.7c0-1.3-7.9,0-10.7,1.8c-3,1.9-3.8,0.2-1-2.4c2.6-2.4,9-4.3,17.2-4.9
		c7.4-0.5,8.5-0.7,10.8-1.8c1.2-0.5,3.1-0.2,5.3,0.9c4.3,2,7.8,2.1,9.4,0.1c0.7-0.8,2-1.5,3-1.5c0.9,0,3-1,4.6-2.2
		c3.9-3.1,16.8-4,18.8-1.3c1,1.4,2.3,1.7,5.8,1.3c3.6-0.4,4.7-0.2,5.6,1.3c0.7,1,1.2,2.1,1.2,2.4c0,0.8-11.5-0.1-12.9-0.9
		c-0.6-0.4-2.2,0.1-3.6,1.2l-2.5,2l6.6,1.2c3.8,0.7,7.7,2.2,9.2,3.5c3.4,2.7,6,3.7,6.7,2.5s4.5-1.3,4.5-0.2c0,0.5-1.1,1.9-2.5,3.2
		c-1.4,1.3-2.5,3.4-2.5,4.6c0,3.2-3.4,4-5.9,1.5c-1.9-1.9-2.2-1.9-6.6-0.5c-5.2,1.8-5.9,3.4-1.5,3.4c1.7,0,3,0.4,3,1
		c0,1.4-7.8,3.2-11.1,2.5c-3.7-0.8-12.5-8.3-14.9-12.6c-1.9-3.7-1.9-3.7-12.4-2.3l-5.8,0.7l0.5,3.9c0.4,3.3,0,4.5-2.6,8
		c-1.8,2.3-4.3,4.9-5.7,5.9C125.3,133,117.3,134.3,116.5,133z M187.3,114.3c-0.9-0.7-2.2-1.3-2.9-1.3c-0.6,0-1.7-0.6-2.3-1.4
		c-1.1-1.3-5-2.6-9.8-3.2c-1.7-0.2-2.3,0.2-2.3,1.7c0,1.4,0.7,1.9,2.9,1.9c1.5,0,5.5,1.3,8.7,3c4.3,2.1,6,2.6,6.6,1.7
		C188.6,116,188.3,115,187.3,114.3z"/>
	<path class="st1" d="M209.5,116.4c-2-4.4-4.7-10.2-6.1-12.9c-3.4-7-4.4-10.9-5.1-19.2c-0.7-9.7,0.2-12.1,2.7-6.8
		c1.1,2.2,1.9,4.5,2,5c0.1,3.7,10.4,17.5,12.9,17.5c1.7,0,1.4-0.4-2.9-5.1c-2.2-2.4-4.6-5.5-5.3-6.9c-1.5-3.1-0.6-11.8,1.3-13
		c2.1-1.3,2.3-0.6,0.9,3.8c-1,3.6-0.9,4.5,1.1,8.6c1.2,2.5,2.5,4.6,2.9,4.6s2.3,1.8,4.1,4.1c2.3,2.9,2.9,4.3,2.1,4.9
		c-0.9,0.5-0.7,1.7,0.8,4.6c2.4,4.9,2.9,6.8,1.6,7.4c-0.6,0.3-1.7-1-2.6-2.8c-1.9-3.7-7.3-9.2-9-9.2c-0.7,0-0.5,0.9,0.5,2.3
		c0.9,1.2,2.4,3.3,3.3,4.5c2,2.8,1.9,11.5-0.2,14.5C213.3,124.1,212.9,123.6,209.5,116.4z"/>
	<path class="st1" d="M99.3,100.3c1-5.2,2.6-8.3,4.3-8.3s1.7,0-0.8,7.3C101.3,103.7,98.4,104.5,99.3,100.3z"/>
<unwplyw/g> 
</svg>
